<?xml version="1.0" standalone="no"?>
<!DOCTYPE svg PUBLIC "-//W3C//DTD SVG 20010904//EN"
 "http://www.w3.org/TR/2001/REC-SVG-20010904/DTD/svg10.dtd">
<svg version="1.0" xmlns="http://www.w3.org/2000/svg"
 width="774.000000pt" height="774.000000pt" viewBox="0 0 774.000000 774.000000"
 preserveAspectRatio="xMidYMid meet">
<metadata>
Created by potrace 1.11, written by Peter Selinger 2001-2013
</metadata>
<g transform="translate(0.000000,774.000000) scale(0.100000,-0.100000)"
fill="#000000" stroke="none">
<path d="M4029 7725 c-1 -5 -1 -13 0 -17 0 -4 -13 -6 -29 -6 -19 1 -40 -8 -55
-22 -14 -13 -25 -20 -25 -16 0 17 -77 -38 -98 -70 -13 -20 -26 -33 -29 -30 -3
3 -1 11 5 18 7 9 6 19 -4 32 -8 11 -14 15 -14 8 0 -6 -11 -14 -24 -18 -25 -6
-86 -65 -86 -83 0 -5 -18 -18 -40 -27 -28 -13 -39 -23 -35 -34 7 -22 -34 -47
-46 -28 -7 10 -9 9 -9 -4 0 -10 6 -18 14 -18 8 0 16 -7 20 -15 5 -14 -20 -21
-60 -16 -16 2 -35 -24 -44 -62 -8 -30 -9 -31 -15 -9 -4 13 -13 20 -19 17 -6
-3 -19 -8 -28 -11 -19 -7 -25 -24 -9 -24 6 0 4 -12 -4 -27 -8 -15 -11 -31 -8
-36 4 -6 -1 -8 -12 -3 -34 13 -83 -4 -93 -33 -7 -19 -17 -27 -38 -29 -16 -1
-34 -8 -40 -16 -5 -8 -18 -14 -28 -13 -11 1 -21 -4 -24 -12 -3 -9 0 -12 10 -8
9 3 21 0 27 -6 14 -14 15 -30 1 -22 -14 9 -12 -9 3 -24 10 -10 8 -16 -8 -29
-31 -26 -31 -52 0 -52 21 0 25 -4 25 -31 0 -19 -4 -28 -11 -24 -6 4 -5 -2 3
-14 7 -12 17 -21 23 -21 6 0 16 -9 23 -20 7 -11 8 -20 3 -20 -6 0 -13 5 -16
10 -10 16 -21 11 -21 -9 0 -11 4 -18 7 -15 4 2 10 0 14 -6 3 -5 1 -10 -4 -10
-6 0 -11 -7 -11 -16 0 -10 5 -14 16 -10 8 3 12 2 9 -4 -9 -14 11 -12 27 3 39
39 87 57 127 51 26 -4 41 -12 41 -21 0 -8 4 -12 10 -8 5 3 7 12 3 20 -3 11 2
15 17 15 19 0 20 -3 10 -15 -7 -8 -8 -20 -4 -27 16 -25 -10 -108 -34 -108 -7
0 -10 -5 -7 -10 3 -6 -1 -17 -9 -25 -8 -9 -13 -21 -11 -28 5 -15 -22 -53 -32
-44 -4 4 -1 13 5 19 7 7 12 16 12 21 0 12 -21 4 -23 -8 -1 -6 -14 -23 -29 -39
-16 -16 -28 -33 -28 -37 0 -15 22 -10 37 9 11 13 13 13 10 2 -2 -8 -13 -19
-25 -25 -12 -5 -22 -13 -22 -17 0 -5 -7 -8 -15 -8 -8 0 -15 -8 -16 -17 0 -10
-1 -34 -2 -53 -2 -26 -8 -37 -27 -47 -18 -9 -20 -13 -7 -13 12 0 17 -8 17 -32
0 -30 -1 -31 -15 -12 -14 18 -14 18 -15 -8 0 -15 5 -30 10 -33 6 -3 10 -11 10
-16 0 -6 -7 -3 -16 5 -20 20 -25 20 -17 0 3 -9 1 -19 -5 -23 -6 -3 -14 -19
-17 -34 -6 -23 -5 -26 11 -20 16 6 16 5 -2 -14 -23 -24 -23 -24 -26 10 -1 15
-6 27 -10 27 -11 0 -20 -38 -13 -60 8 -26 -11 -61 -30 -54 -11 4 -15 -1 -15
-16 0 -16 -4 -20 -15 -16 -10 4 -15 -1 -15 -14 0 -28 -20 -25 -21 3 0 14 -2
17 -6 7 -35 -99 -84 -159 -105 -129 -6 10 -8 -3 -5 -36 3 -27 3 -42 0 -32 -3
11 -11 16 -19 13 -7 -3 -21 2 -30 11 -13 14 -17 14 -25 2 -6 -10 -9 -10 -9 -1
0 6 -7 12 -15 12 -8 0 -15 -6 -15 -12 0 -10 -2 -10 -9 0 -13 21 -81 28 -81 9
0 -9 -4 -17 -8 -19 -5 -1 -12 -15 -15 -30 -8 -29 12 -58 39 -58 8 0 13 -4 10
-8 -2 -4 5 -14 16 -21 18 -11 20 -11 15 2 -4 11 5 18 34 25 22 6 39 6 39 1 0
-5 -6 -9 -14 -9 -33 0 -55 -81 -32 -118 9 -16 -36 -174 -53 -180 -15 -7 -24
-62 -11 -62 4 0 21 21 38 48 33 49 104 132 114 132 10 0 16 -40 7 -46 -5 -3
-9 1 -9 8 -1 7 -8 -3 -17 -22 -9 -19 -15 -41 -14 -47 1 -7 -5 -13 -13 -13 -8
0 -18 -4 -21 -10 -4 -6 1 -7 12 -3 17 6 17 5 1 -14 -10 -11 -18 -28 -18 -37 0
-12 -5 -16 -16 -12 -8 3 -13 2 -9 -3 3 -5 -7 -19 -22 -31 -22 -17 -25 -23 -13
-30 8 -6 21 -10 28 -10 7 0 12 -14 11 -37 l-2 -38 -7 35 c-4 21 -8 27 -9 15
l-2 -20 -9 20 c-8 19 -9 19 -9 -3 -1 -18 -5 -21 -24 -17 -20 5 -26 1 -38 -27
-9 -18 -14 -27 -12 -20 1 7 -2 10 -7 7 -6 -3 -10 -20 -10 -37 0 -23 -4 -29
-15 -24 -15 5 -20 -10 -15 -43 1 -9 -4 -12 -15 -7 -13 5 -15 2 -10 -15 5 -14
3 -19 -3 -15 -6 4 -16 -2 -21 -13 -14 -25 -14 -34 -1 -26 6 3 10 1 10 -4 0 -6
-4 -11 -10 -11 -6 0 -5 -10 2 -25 6 -13 15 -22 19 -19 5 3 6 -1 3 -9 -3 -8 16
-36 43 -65 81 -87 84 -97 56 -190 -9 -32 -16 -60 -15 -64 1 -5 -2 -8 -8 -8
-19 0 -10 -29 12 -36 17 -5 27 0 45 22 13 16 23 37 23 47 0 10 5 15 10 12 6
-3 10 -18 10 -33 0 -21 -11 -34 -50 -61 -30 -21 -57 -32 -69 -28 -24 6 -41
-28 -41 -83 0 -21 -5 -40 -11 -42 -7 -2 -12 -34 -12 -83 -1 -44 -4 -69 -7 -55
-4 19 -13 26 -38 28 l-32 3 0 -53 c-1 -75 -9 -305 -15 -420 -3 -54 -2 -98 3
-99 40 -4 64 -4 67 2 3 3 7 91 10 196 4 104 8 198 10 209 2 10 4 37 5 59 l2
40 8 -38 c4 -21 12 -48 17 -60 6 -12 15 -33 21 -47 l11 -25 0 27 c1 15 -3 30
-9 33 -12 8 -13 42 -1 49 5 4 14 -27 21 -66 15 -96 29 -132 45 -118 7 6 19 8
28 4 18 -6 10 -45 -18 -88 -9 -14 -20 -49 -24 -78 l-7 -53 -8 70 c-16 164 -20
166 -29 16 -9 -152 -8 -160 36 -161 16 0 17 5 12 31 -5 22 -4 29 4 25 6 -4 11
-18 11 -31 0 -37 34 -87 89 -128 28 -20 55 -37 61 -37 11 0 12 -14 11 -130 -2
-112 -11 -180 -26 -180 -17 0 -26 -66 -19 -139 7 -60 7 -61 37 -58 l31 2 3 80
c1 44 5 123 8 175 2 52 5 120 5 150 0 69 9 83 45 74 l27 -7 -6 -146 c-4 -80
-9 -189 -12 -241 l-5 -95 28 -11 c15 -5 36 -8 46 -6 16 3 18 10 13 40 -4 29
-4 32 4 15 5 -13 11 -23 14 -23 7 0 -1 82 -10 104 -5 14 -4 17 4 12 8 -5 10 2
6 22 -4 18 -1 32 5 37 9 5 9 10 0 21 -7 8 -9 27 -5 46 4 18 9 64 11 101 2 38
6 71 9 74 9 9 84 -18 89 -31 2 -6 0 -74 -5 -151 -5 -77 -7 -173 -6 -214 3 -65
5 -75 22 -77 11 -2 30 -5 42 -8 17 -5 24 -1 30 16 4 13 28 55 54 93 52 79 62
108 60 178 -1 32 3 47 9 42 7 -4 10 -51 8 -130 -1 -67 -5 -119 -8 -114 -3 5
-16 -9 -28 -32 -44 -78 -7 -193 91 -286 76 -73 124 -113 134 -113 5 0 25 -8
44 -19 68 -36 73 -35 126 17 27 26 74 68 104 92 30 25 57 47 60 50 34 39 291
225 590 428 188 128 255 180 359 277 63 59 151 169 151 190 0 5 11 22 25 37
l23 27 99 -15 c54 -8 125 -19 158 -24 33 -5 107 -16 165 -25 58 -8 141 -22
185 -30 44 -8 154 -26 245 -40 91 -15 199 -32 240 -40 41 -8 113 -19 158 -25
46 -6 95 -15 108 -20 14 -6 28 -9 32 -8 7 2 107 -10 142 -17 9 -2 63 -11 121
-19 57 -9 169 -28 249 -41 80 -14 219 -36 310 -50 91 -14 189 -30 219 -35 30
-6 68 -10 85 -10 17 0 44 -7 60 -15 30 -16 56 -14 56 4 0 5 -13 12 -30 16 -16
4 -32 11 -35 15 -3 5 -19 7 -36 3 -29 -6 -100 4 -423 57 -170 28 -191 36 -180
73 3 9 2 17 -3 17 -9 0 -212 32 -383 61 -63 11 -135 21 -160 23 -39 3 -212 31
-655 107 -131 22 -193 32 -480 79 -104 16 -200 33 -212 35 -25 6 -31 33 -11
53 7 7 9 12 5 12 -3 0 0 18 8 41 8 23 12 45 10 50 -3 5 1 19 9 31 8 13 20 56
27 96 7 39 16 72 20 72 4 0 10 18 14 40 4 22 11 42 16 46 5 3 9 13 9 23 0 10
7 32 15 47 8 16 15 38 15 50 0 11 7 35 15 52 9 16 18 60 22 96 3 36 10 66 14
66 5 0 9 11 9 24 0 14 5 28 10 31 6 3 10 19 10 35 0 16 4 31 9 35 5 3 15 31
22 63 6 31 18 67 25 79 8 12 14 32 14 43 0 11 9 38 20 60 11 22 20 45 20 52 0
7 9 30 20 51 11 21 18 42 15 47 -3 5 -1 11 5 15 5 3 10 15 10 25 0 10 7 25 15
34 8 8 12 22 9 31 -4 9 5 32 20 54 16 23 24 45 20 54 -4 10 -1 17 6 17 7 0 10
7 6 16 -4 9 -2 22 2 28 11 14 24 92 27 171 4 107 24 238 36 246 9 5 8 14 -5
34 -10 15 -14 30 -10 33 4 4 9 1 11 -5 3 -7 12 -13 20 -13 11 0 14 6 9 23 -17
57 -19 119 -5 128 10 6 11 11 3 17 -6 4 -13 16 -16 27 -3 11 -9 28 -13 38 -4
10 -3 17 4 17 6 0 11 -7 11 -15 0 -8 4 -15 10 -15 10 0 3 25 -15 53 -7 10 -32
28 -56 40 -40 20 -44 25 -45 62 -2 51 20 107 39 99 20 -7 7 68 -24 140 -21 50
-27 56 -54 56 -35 0 -67 19 -47 27 16 6 15 23 -2 23 -8 0 -24 21 -37 46 -33
69 -136 194 -159 194 -10 0 -24 8 -30 18 -8 12 -13 13 -16 5 -11 -26 -32 -12
-39 25 -4 20 -11 42 -16 48 -5 7 -12 20 -14 30 -2 11 -12 40 -21 67 -15 43
-18 46 -30 30 -7 -10 -14 -26 -14 -35 0 -10 -5 -18 -10 -18 -6 0 -8 10 -4 24
3 13 1 27 -5 30 -6 4 -11 18 -11 32 0 24 -14 32 -25 14 -10 -17 -25 -1 -25 28
0 25 -1 25 -14 6 -8 -11 -10 -21 -5 -22 6 -3 5 -9 -2 -18 -6 -7 -9 -21 -5 -29
3 -8 1 -15 -3 -15 -14 0 -23 32 -11 44 6 6 4 16 -7 28 -16 18 -16 23 4 83 12
36 17 65 12 65 -5 0 -9 -4 -9 -8 0 -13 -77 -92 -90 -92 -6 0 -8 5 -5 10 12 19
-7 10 -25 -12 -28 -35 -33 -16 -14 54 25 94 24 114 -5 110 -24 -2 -24 -2 -5
19 l19 22 -27 -7 c-23 -5 -28 -3 -28 13 0 22 -16 37 -22 20 -2 -5 -11 -7 -21
-3 -12 4 -16 12 -11 27 5 16 3 19 -12 13 -17 -7 -17 -6 0 13 33 37 -32 41 -69
4 -13 -13 -18 -14 -25 -3 -4 7 -13 9 -19 6 -20 -13 -12 5 12 25 l22 19 -28
-10 c-16 -6 -48 -8 -71 -6 -35 3 -44 0 -52 -16 -5 -11 -24 -27 -43 -34 l-35
-15 20 23 c10 12 25 28 32 36 27 29 0 52 -38 32 -15 -8 -20 -8 -16 -1 4 6 3
11 -2 11 -16 0 -21 -12 -13 -29 5 -10 0 -34 -11 -61 l-19 -45 6 50 c3 28 7 60
9 73 2 12 2 22 0 22 -8 0 -84 -117 -84 -129 0 -8 -3 -11 -7 -8 -3 4 -12 2 -20
-4 -10 -9 -13 -7 -13 8 0 10 5 24 10 29 15 15 1 47 -14 35 -6 -6 -18 -6 -25
-2 -11 7 -10 11 4 18 16 9 16 10 0 17 -17 6 -17 7 -1 19 27 19 11 44 -27 42
-18 -1 -35 2 -38 7 -7 11 -39 0 -39 -14 0 -6 7 -8 15 -4 13 4 14 2 5 -14 -6
-11 -15 -20 -20 -20 -5 0 -7 -8 -4 -17 5 -17 5 -17 -9 0 -17 20 -28 22 -21 3
3 -7 -2 -16 -12 -20 -13 -5 -15 -1 -11 21 4 16 4 22 1 16 -9 -21 -23 -15 -17
7 6 23 14 25 30 9 6 -6 16 -8 22 -5 17 11 13 26 -4 20 -8 -4 -15 -3 -15 1 0 9
27 35 31 31 2 -2 10 2 17 10 27 29 -30 14 -66 -17 -37 -33 -59 -24 -27 11 13
14 13 19 3 24 -10 5 -10 7 0 12 6 3 12 12 12 20 0 9 -5 12 -11 8 -6 -3 -15 0
-20 7 -5 8 -9 10 -10 4z m-54 -65 c-3 -5 -11 -10 -16 -10 -6 0 -7 5 -4 10 3 6
11 10 16 10 6 0 7 -4 4 -10z m-87 -59 c-29 -44 -58 -65 -58 -43 0 12 70 92 81
92 5 0 -6 -22 -23 -49z m52 -47 c0 -8 -4 -14 -9 -14 -5 0 -13 -9 -16 -20 -7
-23 -22 -27 -22 -5 0 8 4 15 9 15 4 0 8 7 8 15 0 8 5 15 11 15 5 0 7 5 3 12
-4 7 -3 8 4 4 7 -4 12 -14 12 -22z m537 20 c-3 -3 -12 -4 -19 -1 -8 3 -5 6 6
6 11 1 17 -2 13 -5z m-692 -34 c-3 -5 -10 -10 -16 -10 -5 0 -9 5 -9 10 0 6 7
10 16 10 8 0 12 -4 9 -10z m282 -5 c19 -20 10 -100 -13 -109 -13 -5 -15 5 -13
59 1 36 4 65 6 65 3 0 11 -7 20 -15z m-225 -30 c-2 -14 -9 -28 -15 -32 -6 -4
-7 4 -3 21 4 18 3 25 -4 21 -5 -3 -10 -1 -10 4 0 6 8 11 19 11 14 0 17 -6 13
-25z m731 10 c-3 -9 -8 -14 -10 -11 -3 3 -2 9 2 15 9 16 15 13 8 -4z m37 -24
c0 -17 -18 -21 -24 -6 -3 9 0 15 9 15 8 0 15 -4 15 -9z m-60 -10 c0 -5 -7 -11
-15 -15 -15 -5 -20 5 -8 17 9 10 23 9 23 -2z m30 -10 c0 -5 -9 -19 -20 -32
-16 -20 -19 -21 -20 -6 0 9 5 17 10 17 6 0 10 7 10 15 0 8 5 15 10 15 6 0 10
-4 10 -9z m226 -226 c-13 -36 -15 -37 -15 -13 -1 15 5 39 11 54 19 40 22 7 4
-41z m303 -199 c-12 -24 -29 -36 -29 -18 0 10 33 52 38 48 1 -2 -3 -15 -9 -30z
m-1622 -338 c-3 -8 -6 -5 -6 6 -1 11 2 17 5 13 3 -3 4 -12 1 -19z m-137 -208
c0 -5 -2 -10 -4 -10 -3 0 -8 5 -11 10 -3 6 -1 10 4 10 6 0 11 -4 11 -10z m-30
-20 c0 -5 -4 -10 -10 -10 -5 0 -10 5 -10 10 0 6 5 10 10 10 6 0 10 -4 10 -10z
m169 -509 c12 -7 12 -13 3 -24 -7 -7 -9 -17 -6 -20 6 -6 -19 -37 -29 -37 -11
0 -16 64 -6 76 13 16 19 17 38 5z m-129 -30 c0 -10 -11 -26 -24 -35 -24 -15
-24 -15 -13 7 28 52 37 59 37 28z m-50 -11 c0 -5 -4 -10 -10 -10 -5 0 -10 5
-10 10 0 6 5 10 10 10 6 0 10 -4 10 -10z m-103 -32 c-3 -8 -6 -5 -6 6 -1 11 2
17 5 13 3 -3 4 -12 1 -19z m73 -3 c0 -8 -2 -15 -4 -15 -2 0 -6 7 -10 15 -3 8
-1 15 4 15 6 0 10 -7 10 -15z m150 -6 c0 -5 -4 -9 -10 -9 -5 0 -10 7 -10 16 0
8 5 12 10 9 6 -3 10 -10 10 -16z m-20 -22 c0 -5 -4 -5 -10 -2 -5 3 -10 14 -10
23 0 15 2 15 10 2 5 -8 10 -19 10 -23z m-236 10 c4 4 4 0 1 -9 -5 -11 -1 -16
12 -15 10 1 21 7 25 12 4 6 8 -2 8 -17 0 -20 -7 -28 -30 -37 -20 -6 -30 -17
-30 -30 0 -11 -7 -27 -16 -35 -8 -9 -18 -40 -21 -70 -5 -45 -11 -58 -34 -75
-26 -19 -29 -26 -24 -64 l5 -42 -17 49 c-13 37 -14 52 -5 67 7 11 8 20 2 24
-6 3 -10 2 -10 -3 0 -5 -6 -9 -14 -9 -11 0 -13 13 -9 56 9 107 23 150 58 176
35 27 50 32 39 13 -4 -7 1 -5 11 4 13 12 23 14 30 8 7 -6 15 -7 19 -3z m493
-184 c-6 -108 -27 -188 -57 -225 -22 -26 -27 -13 -6 17 18 27 46 153 46 212 0
50 8 93 18 93 3 0 2 -44 -1 -97z m-730 -45 c-2 -13 -4 -3 -4 22 0 25 2 35 4
23 2 -13 2 -33 0 -45z m162 -211 c0 -21 -1 -21 -9 -2 -12 28 -12 37 0 30 6 -3
10 -16 9 -28z m-296 -974 c-13 -2 -23 -11 -23 -20 0 -9 -6 -13 -14 -10 -9 4
-20 -6 -30 -26 -8 -18 -16 -26 -16 -19 0 6 -5 12 -12 12 -6 0 -8 -3 -5 -7 4
-3 0 -17 -8 -30 -9 -13 -13 -33 -10 -43 4 -12 2 -20 -5 -20 -9 0 -11 21 -8 71
4 70 17 95 46 84 6 -2 12 -1 12 4 0 4 21 8 48 8 26 0 37 -2 25 -4z"/>
<path d="M3101 5804 c0 -11 3 -14 6 -6 3 7 2 16 -1 19 -3 4 -6 -2 -5 -13z"/>
<path d="M4225 7650 c-3 -5 -1 -10 4 -10 6 0 11 5 11 10 0 6 -2 10 -4 10 -3 0
-8 -4 -11 -10z"/>
<path d="M4295 7530 c3 -5 8 -10 11 -10 2 0 4 5 4 10 0 6 -5 10 -11 10 -5 0
-7 -4 -4 -10z"/>
<path d="M3503 7410 c-1 -10 5 -21 13 -24 18 -7 19 18 1 32 -10 8 -13 6 -14
-8z"/>
<path d="M5071 7214 c0 -11 3 -14 6 -6 3 7 2 16 -1 19 -3 4 -6 -2 -5 -13z"/>
<path d="M5575 6310 c-3 -5 -1 -10 4 -10 6 0 11 5 11 10 0 6 -2 10 -4 10 -3 0
-8 -4 -11 -10z"/>
<path d="M2503 5678 c-14 -22 -30 -127 -21 -140 5 -9 8 -3 8 15 0 15 4 27 9
27 5 0 11 25 13 55 3 60 3 61 -9 43z"/>
<path d="M2552 5635 c0 -16 2 -22 5 -12 2 9 2 23 0 30 -3 6 -5 -1 -5 -18z"/>
<path d="M2443 5630 c-12 -28 -6 -47 9 -32 5 5 8 20 6 33 l-5 24 -10 -25z"/>
<path d="M2510 5508 c0 -29 -5 -60 -11 -68 -8 -12 -9 -10 -5 10 3 14 1 31 -3
39 -6 9 -11 -17 -16 -70 -6 -82 -4 -191 4 -183 2 2 10 -1 16 -6 18 -15 105
-25 105 -12 0 5 21 36 46 67 49 59 51 80 9 91 -45 11 -55 0 -55 -62 0 -73 -24
-70 -28 4 -3 45 -6 52 -24 52 -20 0 -21 4 -14 70 6 73 1 120 -15 120 -5 0 -9
-24 -9 -52z m161 -165 c3 1 2 -2 -2 -6 -7 -10 -39 2 -39 14 0 6 8 6 19 0 10
-6 20 -9 22 -8z m-161 -38 c0 -8 -4 -15 -10 -15 -5 0 -10 7 -10 15 0 8 5 15
10 15 6 0 10 -7 10 -15z"/>
<path d="M2750 5534 c0 -8 5 -12 10 -9 6 3 10 10 10 16 0 5 -4 9 -10 9 -5 0
-10 -7 -10 -16z"/>
<path d="M2451 5524 c0 -11 3 -14 6 -6 3 7 2 16 -1 19 -3 4 -6 -2 -5 -13z"/>
<path d="M2 4707 l3 -92 80 -14 c44 -7 87 -16 95 -18 8 -3 26 -7 40 -9 36 -6
251 -44 278 -49 12 -3 32 -7 45 -9 20 -3 45 -8 107 -21 14 -3 63 -10 109 -15
46 -6 92 -15 102 -20 10 -6 33 -10 53 -10 19 0 38 -5 41 -10 3 -6 17 -7 29 -4
13 3 43 0 67 -7 24 -7 55 -14 69 -15 96 -9 135 -16 147 -26 8 -7 13 -7 13 0 0
5 8 8 18 6 37 -10 51 16 53 101 l2 80 -284 47 c-251 41 -420 70 -569 98 -25 5
-79 13 -120 20 -41 6 -95 15 -120 20 -99 19 -119 19 -123 2 -4 -16 -5 -16 -6
0 -1 12 -13 19 -38 23 -21 3 -51 8 -66 10 l-28 5 3 -93z"/>
<path d="M2625 4760 c3 -5 8 -10 11 -10 2 0 4 5 4 10 0 6 -5 10 -11 10 -5 0
-7 -4 -4 -10z"/>
<path d="M2 4289 l3 -174 55 -7 c30 -4 91 -14 135 -22 44 -9 103 -18 130 -21
28 -4 86 -13 130 -21 44 -8 112 -18 150 -24 39 -5 117 -16 175 -25 58 -9 116
-18 130 -20 14 -2 25 -4 25 -5 0 -1 14 -3 30 -5 42 -3 246 -35 266 -41 10 -2
30 -6 45 -8 105 -14 331 -47 348 -51 12 -3 45 -7 75 -10 29 -2 60 -10 67 -16
11 -9 14 -8 14 1 0 8 4 9 13 3 6 -5 30 -10 52 -11 35 -2 37 0 18 9 -18 9 -23
22 -25 62 l-3 50 -50 4 c-55 4 -277 36 -395 56 l-75 13 3 177 c2 97 0 177 -5
177 -4 0 -9 -28 -10 -61 -1 -39 -6 -65 -15 -71 -10 -7 -10 -11 0 -15 17 -7 15
-65 -4 -99 l-16 -29 5 35 c5 38 -14 77 -33 65 -8 -5 -8 -10 0 -20 7 -8 9 -24
4 -37 -6 -21 -8 -20 -20 15 -7 21 -11 52 -7 68 7 36 -26 76 -46 56 -8 -8 -14
-9 -19 -1 -4 6 -27 11 -52 12 -56 2 -193 21 -240 32 -28 7 -117 22 -210 35 -8
1 -22 5 -30 8 -8 3 -58 10 -110 16 -130 15 -157 19 -215 31 -27 5 -75 12 -105
15 -58 6 -79 9 -148 20 l-42 8 2 -174z"/>
<path d="M1230 4280 c0 -6 5 -10 11 -10 6 0 8 -7 5 -16 -3 -9 5 -26 19 -42 20
-22 25 -24 25 -9 0 10 -7 20 -15 23 -8 4 -15 16 -15 29 0 13 -7 25 -15 29 -8
3 -15 1 -15 -4z"/>
<path d="M0 2020 l0 -2020 1284 0 1284 0 7 33 c6 27 8 29 14 13 5 -14 10 -16
15 -7 4 6 2 18 -4 26 -9 11 -11 42 -6 107 8 119 14 211 15 221 1 4 6 7 12 7 6
0 8 -9 3 -22 -3 -13 -3 -19 2 -15 5 5 9 38 9 75 1 54 -2 70 -17 80 -21 15 -25
71 -6 90 8 8 8 12 1 12 -11 0 -2 65 10 77 3 3 2 16 -4 30 -6 17 -6 22 2 17 6
-4 10 1 8 12 -2 22 10 54 28 72 7 7 20 35 30 62 10 28 21 50 25 50 5 0 8 6 8
13 0 7 12 37 26 66 14 29 24 65 22 80 -2 14 4 31 12 38 13 11 13 14 0 23 -13
8 -13 10 2 10 11 0 15 5 12 15 -4 8 -1 15 6 15 6 0 8 5 4 11 -3 6 0 16 7 21
11 7 11 11 2 15 -9 3 -6 13 9 33 11 16 18 35 15 44 -3 8 -2 18 3 21 5 3 12 30
15 60 4 31 11 58 16 61 5 2 17 24 27 47 10 23 25 49 33 58 17 18 32 42 60 93
16 31 20 51 16 90 -5 57 1 81 50 186 57 125 55 121 69 109 14 -11 13 -16 44
166 12 66 27 140 35 165 7 25 16 83 20 130 3 47 13 135 22 195 34 251 45 381
26 327 -3 -6 -10 -9 -16 -5 -6 4 -21 8 -33 9 -21 2 -22 -2 -23 -74 0 -88 -13
-163 -30 -183 -6 -8 -21 -26 -32 -42 -23 -30 -46 -28 -29 3 6 10 7 21 2 24 -4
2 -5 40 -1 83 3 43 2 80 -2 81 -5 2 -9 8 -9 13 0 6 3 8 8 6 4 -3 8 19 10 48
l2 52 -72 7 c-89 8 -134 15 -164 26 -22 9 -22 8 -23 -83 -1 -51 -4 -126 -7
-167 -11 -156 -10 -193 8 -214 15 -19 17 -19 18 -3 0 21 19 22 49 0 23 -15 23
-17 6 -30 -26 -19 -44 -16 -20 3 19 15 18 16 -23 10 -33 -5 -42 -4 -37 6 4 7
1 6 -7 -2 -7 -8 -29 -15 -48 -15 l-35 0 2 78 c1 52 -2 77 -10 77 -8 0 -7 3 1
9 11 6 13 27 9 82 -2 41 0 86 5 102 7 19 7 32 -1 41 -8 10 -9 16 -1 21 12 7
13 64 2 82 -4 6 -31 15 -60 19 -48 6 -52 5 -52 -14 0 -12 4 -24 10 -27 13 -8
2 -184 -14 -210 -8 -14 -10 -36 -5 -69 5 -30 4 -57 -3 -69 -10 -19 -7 -79 6
-107 7 -16 4 -16 -67 -11 -10 0 -16 5 -12 10 3 6 8 74 10 153 3 79 7 191 11
251 6 116 8 110 -53 121 -30 5 -33 3 -33 -18 0 -15 7 -26 20 -29 14 -3 20 -14
20 -31 0 -14 -4 -26 -10 -26 -5 0 -10 -7 -10 -15 0 -8 5 -15 10 -15 6 0 10
-18 10 -41 0 -32 -4 -42 -20 -46 -26 -7 -28 -16 -35 -179 -4 -96 -3 -144 4
-149 7 -4 1 -16 -15 -33 -14 -15 -34 -42 -45 -59 -11 -18 -22 -33 -23 -33 -2
0 -3 19 -4 43 -2 85 -6 127 -14 127 -5 0 -4 9 2 19 5 11 9 32 9 48 l-1 28 -8
-30 c-6 -24 -8 -17 -9 33 0 34 -5 62 -11 62 -5 0 -7 7 -4 15 4 8 10 12 16 9 5
-3 4 4 -4 15 -11 18 -11 23 2 31 13 9 13 11 0 20 -13 9 -13 11 0 20 12 8 13
12 2 19 -11 6 -11 23 -3 85 13 90 13 98 0 71 -8 -17 -8 -16 -4 7 3 15 8 101
11 191 7 180 7 181 -51 183 -34 1 -179 19 -276 35 -63 10 -65 11 -63 37 2 15
5 82 7 150 4 121 4 122 -18 122 -14 0 -25 -8 -28 -20 -3 -13 -10 -18 -21 -14
-9 3 -16 1 -16 -6 0 -6 -5 -8 -10 -5 -5 3 -10 0 -10 -7 0 -8 -7 -4 -18 8 -16
20 -53 31 -142 40 -33 3 -144 20 -200 30 -34 6 -65 11 -127 19 -35 5 -53 13
-53 21 0 8 -8 14 -17 14 -15 0 -16 -2 -3 -10 8 -5 12 -12 9 -15 -9 -9 -93 12
-97 24 -2 6 -11 11 -21 11 -9 0 -27 7 -39 16 -23 16 -42 12 -42 -11 0 -10 -11
-12 -42 -8 -24 2 -50 7 -58 10 -8 3 -37 7 -65 9 -62 5 -77 8 -90 16 -6 4 -24
5 -40 4 -16 -2 -52 4 -81 14 -29 10 -62 16 -73 13 -12 -3 -28 0 -36 7 -8 6
-18 9 -24 6 -5 -4 -16 1 -24 9 -9 9 -23 12 -33 8 -11 -4 -15 -3 -10 5 4 7 -10
10 -44 8 -29 -1 -50 3 -50 9 0 5 -4 4 -9 -3 -6 -11 -20 -11 -70 -2 -34 6 -75
9 -91 6 -16 -2 -67 4 -112 14 -46 9 -111 20 -145 24 l-63 7 0 -2021z m1916
1173 c-10 -10 -19 5 -10 18 6 11 8 11 12 0 2 -7 1 -15 -2 -18z m34 -35 c0 -12
-5 -15 -16 -11 -10 4 -12 9 -5 16 5 5 7 17 4 26 -4 14 -3 14 6 1 6 -8 11 -23
11 -32z m-40 4 c0 -4 -11 -8 -25 -8 -14 -1 -25 3 -25 10 0 6 -5 4 -10 -4 -6
-9 -10 -10 -10 -3 0 19 32 33 52 22 10 -5 18 -13 18 -17z m-118 -121 c-3 -32
-8 -41 -23 -41 -16 0 -19 8 -19 49 0 30 5 51 13 54 20 8 33 -19 29 -62z m90
41 c4 -4 4 -26 1 -50 -6 -42 -6 -43 -37 -36 -17 3 -31 7 -32 8 0 0 1 22 4 48
4 44 5 46 30 42 15 -3 30 -8 34 -12z m68 -28 c6 -14 10 -36 10 -49 0 -18 -5
-23 -25 -21 -16 0 -25 7 -25 17 0 9 -3 31 -6 48 -6 27 -4 31 15 31 14 0 25 -9
31 -26z m70 -15 c0 -5 -4 -9 -10 -9 -5 0 -10 7 -10 16 0 8 5 12 10 9 6 -3 10
-10 10 -16z m0 -44 c0 -14 -4 -25 -10 -25 -5 0 -10 11 -10 25 0 14 5 25 10 25
6 0 10 -11 10 -25z m906 6 c-15 -17 -13 -56 4 -46 4 2 17 -7 29 -21 l21 -24
-27 6 c-45 10 -64 35 -57 72 5 23 12 32 27 32 19 0 19 -1 3 -19z m-616 -20 c0
-11 -4 -23 -10 -26 -6 -4 -10 5 -10 19 0 14 5 26 10 26 6 0 10 -9 10 -19z
m-536 -7 c12 -5 16 -21 16 -74 0 -59 -2 -68 -20 -73 -22 -6 -34 21 -26 58 3
11 5 37 5 58 1 40 1 40 25 31z m85 -13 c13 -3 25 -15 27 -26 4 -24 -23 -68
-36 -60 -6 4 -10 1 -10 -4 0 -6 -7 -11 -15 -11 -12 0 -15 13 -15 55 0 58 2 59
49 46z m99 -41 c2 -17 0 -21 -6 -12 -5 8 -17 12 -28 10 -11 -2 -20 4 -22 15
-3 15 2 18 25 15 21 -2 29 -9 31 -28z m92 -5 c0 -7 -7 -15 -15 -19 -8 -3 -15
-16 -15 -28 0 -19 -2 -20 -10 -8 -13 20 -12 54 1 67 14 14 39 6 39 -12z
m-1705 -15 c3 -9 3 -26 -1 -36 -5 -18 -5 -18 9 -1 8 9 19 17 25 17 6 0 13 8
15 18 3 9 5 -4 6 -30 l1 -48 23 23 22 22 3 -28 c3 -27 4 -27 17 -10 21 29 29
8 9 -26 -10 -17 -14 -34 -10 -38 5 -4 11 -3 13 4 5 13 33 6 33 -8 0 -4 -7 -6
-15 -3 -11 5 -13 2 -9 -10 3 -9 3 -16 -2 -16 -15 0 -44 34 -44 52 0 11 -5 18
-12 15 -7 -2 -12 -16 -10 -30 1 -14 -2 -28 -8 -32 -6 -4 -10 4 -10 19 0 14 -5
26 -11 26 -8 0 -9 -11 -5 -31 3 -17 6 -38 6 -45 0 -8 7 -14 15 -14 8 0 15 4
15 10 0 5 7 7 16 3 10 -4 12 -9 5 -16 -5 -5 -7 -15 -5 -22 6 -15 -85 -27 -100
-13 -17 15 -36 8 -36 -12 0 -11 -4 -20 -8 -20 -4 0 -8 34 -8 75 1 41 -2 75 -5
75 -3 0 -2 26 2 57 4 31 6 60 3 65 -9 14 5 26 31 26 14 0 27 -8 30 -18z m1604
-27 c-2 -36 -14 -62 -25 -55 -19 11 -21 46 -4 59 21 17 30 16 29 -4z m96 -50
c-10 -40 -17 -20 -9 23 5 24 9 32 12 21 2 -10 1 -30 -3 -44z m-167 9 c4 -23
-20 -30 -47 -13 -12 8 -12 11 0 24 19 20 43 15 47 -11z m129 -24 c-3 -7 -5 -2
-5 12 0 14 2 19 5 13 2 -7 2 -19 0 -25z m-1497 -8 c0 -5 -4 -10 -10 -10 -5 0
-10 5 -10 10 0 6 5 10 10 10 6 0 10 -4 10 -10z m1280 -9 c0 -6 -5 -13 -10 -16
-15 -9 -43 3 -35 15 8 13 45 13 45 1z m84 -53 c-2 -69 -11 -98 -29 -92 -8 4
-15 14 -16 23 0 12 -2 11 -8 -4 -6 -15 -9 -7 -12 30 -2 28 -3 62 -1 76 3 24 6
26 35 20 31 -7 32 -9 31 -53z m64 30 c13 -18 3 -81 -13 -75 -8 4 -10 -3 -7
-21 5 -23 6 -24 12 -7 6 18 7 18 12 -3 5 -18 2 -22 -18 -22 -23 0 -24 3 -24
70 0 53 3 70 14 70 7 0 18 -6 24 -12z m89 -33 c-10 -7 -15 -19 -12 -27 3 -7
-1 -22 -8 -32 -12 -17 -14 -14 -15 28 -3 59 3 69 30 55 20 -11 20 -13 5 -24z
m-1520 -37 c-3 -8 -6 -5 -6 6 -1 11 2 17 5 13 3 -3 4 -12 1 -19z m2434 -61
c-8 -8 -11 -5 -11 9 0 27 14 41 18 19 2 -9 -1 -22 -7 -28z m-2271 -347 c0 -5
-4 -10 -10 -10 -5 0 -10 5 -10 10 0 6 5 10 10 10 6 0 10 -4 10 -10z m1097
-162 c-3 -7 -5 -2 -5 12 0 14 2 19 5 13 2 -7 2 -19 0 -25z m858 -1628 c3 -5
-1 -10 -9 -10 -9 0 -16 5 -16 10 0 6 4 10 9 10 6 0 13 -4 16 -10z m0 -41 c11
-17 -1 -21 -15 -4 -8 9 -8 15 -2 15 6 0 14 -5 17 -11z"/>
<path d="M310 2879 c0 -11 5 -17 10 -14 6 3 10 13 10 21 0 8 -4 14 -10 14 -5
0 -10 -9 -10 -21z"/>
<path d="M292 2840 c0 -14 2 -19 5 -12 2 6 2 18 0 25 -3 6 -5 1 -5 -13z"/>
<path d="M320 2796 c0 -8 4 -17 9 -20 5 -4 7 3 4 14 -6 23 -13 26 -13 6z"/>
<path d="M355 2767 c-4 -11 -2 -29 6 -44 17 -31 23 -16 11 29 -8 27 -11 30
-17 15z"/>
<path d="M1838 2693 c7 -3 16 -2 19 1 4 3 -2 6 -13 5 -11 0 -14 -3 -6 -6z"/>
<path d="M1890 3826 c0 -2 7 -6 15 -10 8 -3 15 -1 15 4 0 6 -7 10 -15 10 -8 0
-15 -2 -15 -4z"/>
<path d="M1966 3816 c10 -8 21 -12 24 -10 5 6 -21 24 -34 24 -6 0 -1 -6 10
-14z"/>
<path d="M2005 3810 c3 -5 8 -10 11 -10 2 0 4 5 4 10 0 6 -5 10 -11 10 -5 0
-7 -4 -4 -10z"/>
<path d="M1835 3800 c3 -5 8 -10 11 -10 2 0 4 5 4 10 0 6 -5 10 -11 10 -5 0
-7 -4 -4 -10z"/>
<path d="M2530 3734 c0 -5 6 -18 14 -29 14 -20 26 -125 15 -125 -3 0 -9 -62
-12 -137 -3 -84 -10 -139 -16 -141 -6 -2 -11 -21 -11 -43 0 -43 3 -44 83 -40
30 2 43 -3 66 -28 31 -33 46 -38 54 -18 4 10 6 10 6 0 1 -7 6 -13 12 -13 6 0
9 6 6 14 -3 7 -1 18 5 24 14 14 0 35 -19 28 -13 -5 -14 0 -9 25 3 17 6 43 6
56 0 16 5 23 13 20 9 -3 13 9 15 42 7 120 14 191 25 254 2 9 8 22 14 28 7 7 7
17 0 34 -10 19 -23 24 -82 33 -38 5 -72 7 -75 5 -3 -3 9 -17 25 -31 l30 -27
-7 -184 c-3 -101 -11 -188 -16 -193 -6 -6 -24 -7 -42 -3 l-31 7 7 191 c4 106
11 203 16 216 5 13 7 25 5 27 -9 9 -97 16 -97 8z m59 -134 c1 -13 0 -13 -9 0
-5 8 -9 24 -9 35 l0 20 9 -20 c5 -11 9 -27 9 -35z m158 -77 c-3 -10 -5 -2 -5
17 0 19 2 27 5 18 2 -10 2 -26 0 -35z m3 -93 c0 -40 -4 -70 -10 -70 -11 0 -13
81 -4 118 10 37 14 25 14 -48z"/>
<path d="M5084 3607 c7 -37 4 -41 -119 -184 -61 -70 -123 -148 -204 -258 -50
-67 -149 -244 -281 -500 -48 -93 -115 -223 -150 -287 -73 -139 -41 -145 -253
45 -82 72 -185 158 -229 189 -78 56 -79 57 -98 38 -11 -11 -38 -29 -62 -40
l-43 -21 35 31 c32 28 33 30 10 25 -14 -3 -36 -7 -50 -8 -36 -4 -112 -41 -134
-66 -11 -11 -23 -21 -29 -21 -5 0 -29 -22 -55 -50 -25 -27 -49 -47 -53 -44 -5
3 -6 -2 -3 -10 3 -9 -3 -19 -16 -26 -12 -6 -26 -25 -32 -41 -5 -16 -14 -29
-19 -29 -5 0 -9 -9 -9 -19 0 -10 -7 -22 -16 -25 -8 -3 -13 -10 -10 -15 4 -5 1
-22 -6 -38 -6 -15 -12 -30 -13 -33 0 -3 -9 -19 -18 -37 -9 -18 -17 -45 -17
-62 0 -16 -4 -31 -9 -33 -21 -7 -16 -79 8 -109 14 -18 22 -21 32 -12 8 6 40
25 72 41 41 21 57 26 57 16 0 -8 5 -14 10 -14 6 0 10 7 10 16 0 8 4 12 10 9
16 -10 4 -114 -16 -136 -11 -13 -21 -45 -25 -88 -9 -79 -39 -148 -149 -341
-43 -74 -81 -146 -85 -160 -4 -14 -11 -30 -15 -35 -15 -19 -48 -118 -95 -285
-26 -90 -52 -174 -58 -185 -6 -11 -12 -31 -14 -45 -1 -14 -7 -38 -12 -55 l-9
-30 -1 35 -1 35 -18 -35 c-9 -19 -14 -36 -10 -38 15 -7 8 -24 -7 -18 -10 3
-15 -1 -15 -13 0 -10 -7 -24 -15 -31 -21 -18 -19 -33 4 -27 13 3 21 -1 24 -12
4 -14 5 -14 6 2 0 9 5 17 11 17 9 0 5 -194 -5 -245 -2 -11 -26 -42 -52 -69
-37 -37 -43 -48 -28 -46 42 5 46 1 30 -24 -9 -13 -18 -39 -20 -57 -2 -19 -9
-35 -15 -37 -5 -2 -7 -14 -4 -27 3 -13 0 -26 -7 -30 -8 -6 -10 -4 -4 5 5 8 4
11 -2 7 -6 -4 -16 -20 -21 -37 l-11 -30 2490 0 2489 0 0 1695 c0 1052 -4 1695
-9 1695 -6 0 -13 -5 -16 -11 -4 -6 -14 -8 -22 -4 -21 7 -53 -23 -53 -50 0 -29
10 -37 27 -24 10 9 13 7 13 -7 -1 -31 -25 -54 -56 -54 -47 0 -429 56 -784 115
-47 7 -116 18 -155 24 -38 6 -140 22 -225 36 -85 13 -171 27 -190 29 -146 19
-463 66 -480 71 -8 2 -91 16 -185 29 -334 50 -431 66 -474 81 -25 8 -47 15
-49 15 -2 0 -1 -15 2 -33z m606 -369 c9 -5 -8 -6 -45 -2 -33 3 -64 11 -70 16
-12 12 93 -1 115 -14z m639 -84 c52 -11 35 -22 -20 -13 -28 5 -54 11 -57 14
-7 7 38 6 77 -1z m657 -94 c19 0 34 -3 34 -7 0 -5 -22 -6 -50 -5 -27 2 -50 8
-50 14 0 6 7 7 16 4 9 -3 31 -6 50 -6z m9 -50 c-9 -14 -78 -31 -88 -21 -11 11
6 22 47 31 34 7 49 4 41 -10z m15 -125 c0 -10 -10 -15 -30 -15 -36 0 -38 7 -7
20 32 13 37 12 37 -5z m-2866 -871 c-104 -198 -136 -255 -142 -250 -3 4 0 12
6 18 7 7 12 15 12 20 0 10 -31 -2 -48 -18 -8 -9 -21 -10 -44 -3 -18 5 -33 9
-34 9 -1 0 -4 10 -7 22 -4 13 0 33 8 45 8 12 14 30 14 40 -1 17 -2 17 -6 1 -5
-18 -15 -23 -26 -12 -8 8 21 38 39 40 8 1 14 -2 14 -8 0 -5 7 -16 15 -24 12
-13 17 -13 28 -2 7 7 16 21 20 31 3 9 13 17 22 17 8 0 15 6 15 13 0 7 20 32
44 54 25 23 42 44 39 47 -4 3 3 6 15 6 12 0 22 4 22 8 0 4 8 18 18 30 33 41
23 4 -24 -84z m-146 -44 c-6 -22 -14 -40 -19 -40 -5 0 -9 -7 -9 -15 0 -8 -4
-15 -10 -15 -14 0 -12 14 8 57 14 31 29 52 38 53 1 0 -3 -18 -8 -40z m-1081
-1337 c-3 -10 -5 -4 -5 12 0 17 2 24 5 18 2 -7 2 -21 0 -30z"/>
<path d="M4005 1839 c-9 -14 -2 -20 14 -10 8 6 9 11 3 15 -6 3 -14 1 -17 -5z"/>
<path d="M3905 1830 c-3 -5 -1 -10 4 -10 6 0 11 5 11 10 0 6 -2 10 -4 10 -3 0
-8 -4 -11 -10z"/>
<path d="M2740 3249 c0 -5 5 -7 10 -4 6 3 10 8 10 11 0 2 -4 4 -10 4 -5 0 -10
-5 -10 -11z"/>
<path d="M2510 3060 c0 -5 5 -10 11 -10 5 0 7 5 4 10 -3 6 -8 10 -11 10 -2 0
-4 -4 -4 -10z"/>
<path d="M2850 546 c0 -2 9 -6 20 -9 11 -3 18 -1 14 4 -5 9 -34 13 -34 5z"/>
</g>
</svg>
